<svg xmlns="http://www.w3.org/2000/svg" id="Layer_1" viewBox="0 0 191.02778 47.051822"><style id="style2">.st0{fill:#FFFFFF;} .st1{fill:#EC1944;} .st2{fill:none;} .st3{fill:#00B4EF;} .st4{fill:url(#SVGID_1_);} .st5{fill:url(#SVGID_2_);} .st6{fill:url(#SVGID_3_);} .st7{fill:#FFC745;} .st8{fill:#FFCE51;} .st9{fill:none;stroke:#FFFFFF;stroke-width:0.69;stroke-miterlimit:10;}</style><path class="st0" d="M94.95 45.778l-3.6-11.5h-13.1l-3.7 11.4h-4.7l12.9-38.2h4.6l12.9 38.2h-5.3zm-8.9-29c-.5-1.5-.9-3-1.1-4.6h-.1c-.3 1.6-.7 3.1-1.2 4.6l-4.6 14.5h11.4z" id="path6" fill="#fff"/><path class="st0" d="M105.55 45.778v-43.6h4.9v43.6z" id="path8" fill="#fff"/><path class="st0" d="M127.85 46.078c-5.4 0-7.4-3.9-7.4-7.6v-19.6h-3.4v-3.1h3.4v-6.8l4.9-1.5v8.3h5.2v3h-5.2v19.5c0 2.4 1.1 4.3 3.8 4.3.5 0 1-.1 1.4-.2v3.1c-.9.4-1.8.5-2.7.6z" id="path10" fill="#fff"/><path class="st0" d="M146.45 46.278c-7.8 0-11.4-3.4-11.4-8.8 0-7.9 7.4-10.3 16.7-11.2v-1.8c0-4.6-2.8-5.9-6.6-5.9-2.5.1-5 .7-7.2 1.9l-1.2-2.9c2.8-1.5 6-2.2 9.2-2.2 5.6 0 10.4 2.4 10.4 9.7v19.2c-3 1.4-6.4 2.1-9.9 2zm5.4-17.5c-7.6.9-12.1 2.6-12.1 8.6 0 4.3 2.7 6.1 7.1 6.1 1.7.1 3.4-.3 4.9-1v-13.7z" id="path12" fill="#fff"/><path class="st0" d="M167.05 9.978c-1.5-.1-2.6-1.3-2.6-2.8.1-1.5 1.3-2.6 2.8-2.6 1.4.1 2.6 1.3 2.6 2.7 0 1.6-1.3 2.8-2.8 2.7zm-2.4 35.8v-30h4.9v30z" id="path14" fill="#fff"/><path class="st0" d="M189.45 18.978c-2.4-.7-5.2-.5-6.8.5v26.2h-4.9v-28.3c2.9-1.5 5.8-2.3 12.9-2.1z" id="path16" fill="#fff"/><path class="st2" id="polygon20" d="M41.25 24.578l-.8-2.7.8 2.6z" fill="none"/><path class="st2" id="polygon22" d="M41.25 24.478v.1l-.8-2.7z" fill="none"/><path class="st2" id="polygon24" d="M41.25 24.478v.1l-.8-2.7z" fill="none"/><linearGradient id="SVGID_1_" gradientUnits="userSpaceOnUse" x1="59.336" y1="31.946" x2="71.996" y2="9.306" gradientTransform="matrix(1 0 0 -1 -29.91 33.768)"><stop offset="0" id="stop28" stop-color="#BBBCBF"/><stop offset=".07" id="stop30" stop-color="#D7D8D9"/><stop offset=".14" id="stop32" stop-color="#E9EAEB"/><stop offset=".19" id="stop34" stop-color="#F0F0F1"/><stop offset=".38" id="stop36" stop-color="#ECECED"/><stop offset=".57" id="stop38" stop-color="#E0E1E2"/><stop offset=".75" id="stop40" stop-color="#CCCDCF"/><stop offset=".94" id="stop42" stop-color="#B1B3B5"/><stop offset="1" id="stop44" stop-color="#A6A8AB"/></linearGradient><path class="st4" d="M40.45 21.878l-1.8-5.6-4.3-13.8s-.7-2.1-1.7-2.1c-.4 0-.7.1-1 .3-.8.5-1.5 1.2-2.1 1.9l-2.7 2.9 10.6 12.2c1.5 1.8 2.6 3.7 3.5 5.9.1.3.3.6.4 1v-.1z" id="path47" fill="url(#SVGID_1_)"/><path class="st1" d="M32.65.378h-10.8c-1.1 0-2.1.7-2.4 1.8 0 0-6.3 16.7-8 20.4l5.6-6.1 9.9-10.8 2.7-3c.6-.8 1.3-1.4 2.1-1.9.3-.2.6-.3.9-.4z" id="path18" fill="#ec1944"/><linearGradient id="SVGID_2_" gradientUnits="userSpaceOnUse" x1="33.613" y1="-3.546" x2="47.043" y2="19.924" gradientTransform="matrix(1 0 0 -1 -29.91 33.768)"><stop offset="0" id="stop49" stop-color="#BBBCBF"/><stop offset=".07" id="stop51" stop-color="#D7D8D9"/><stop offset=".14" id="stop53" stop-color="#E9EAEB"/><stop offset=".19" id="stop55" stop-color="#F0F0F1"/><stop offset=".38" id="stop57" stop-color="#ECECED"/><stop offset=".57" id="stop59" stop-color="#E0E1E2"/><stop offset=".75" id="stop61" stop-color="#CCCDCF"/><stop offset=".94" id="stop63" stop-color="#B1B3B5"/><stop offset="1" id="stop65" stop-color="#A6A8AB"/></linearGradient><path class="st5" d="M14.05 19.678l-12.6 13.8s-1.4 1.6-1 2.5l.1.1.6.6c.9.5 1.8.8 2.7.9l3.9.8 5.4-15.2c.8-2.1 1.9-4.1 3.3-5.9.2-.3.4-.6.6-.8z" id="path68" fill="url(#SVGID_2_)"/><path class="st8" d="M29.25 43.078l-6.4-1.4-.8-.2-18.2-4c-1.01-.217-1.874-.433-2.7-.9-.267-.15-.53-.436-.7-.6l5.8 9.2c.6.9 1.7 1.4 2.7 1.2l21.3-3.2z" id="path93" fill="#ffce51"/><linearGradient id="SVGID_3_" gradientUnits="userSpaceOnUse" x1="76.961" y1="-8.864" x2="52.531" y2="-7.845" gradientTransform="matrix(1 0 0 -1 -29.91 33.768)"><stop offset="0" id="stop70" stop-color="#BBBCBF"/><stop offset=".07" id="stop72" stop-color="#D7D8D9"/><stop offset=".14" id="stop74" stop-color="#E9EAEB"/><stop offset=".19" id="stop76" stop-color="#F0F0F1"/><stop offset=".38" id="stop78" stop-color="#ECECED"/><stop offset=".57" id="stop80" stop-color="#E0E1E2"/><stop offset=".75" id="stop82" stop-color="#CCCDCF"/><stop offset=".94" id="stop84" stop-color="#B1B3B5"/><stop offset="1" id="stop86" stop-color="#A6A8AB"/></linearGradient><path class="st6" d="M46.95 42.278l-.7-2.2-.5-1.5-15.9 3c-2.3.4-4.5.4-6.8.1-.3 0-.6-.1-1-.2l.7.2 6.4 1.4 1 .2 14.4 3.2s2.1.6 2.7-.3l.175-.365c.1-.3.09-.48.09-.78-.037-.748-.265-1.855-.565-2.755z" id="path89" fill="url(#SVGID_3_)"/><path class="st3" d="M52.15 33.378l-13.5-17.1 1.8 5.6.8 2.7 5.6 17.8c.3.9.593 1.846.6 2.8.002.34-.1.7-.2 1 1.793-3.15 3.48-6.398 5.2-9.6.5-1.1.4-2.3-.3-3.2z" id="path26" fill="#00b4ef"/></svg>